<svg xmlns="http://www.w3.org/2000/svg"  viewBox="0 0 48 48" width="50px" height="50px"><path fill="#7882ff" d="M6,10c0-2.2,1.8-4,4-4h28c2.2,0,4,1.8,4,4v28c0,2.2-1.8,4-4,4H10c-2.2,0-4-1.8-4-4V10z"/><circle cx="23.642" cy="24.517" r="11.207" fill="#fff"/><path fill="#4d5cc1" d="M34.469,21.626c0.61,2.265,0.347,4.142,0.138,5.12c-0.093,0.436-0.461,0.764-0.905,0.799 c-12.817,1.009-18.512-5.299-19.926-7.146c-0.226-0.295-0.271-0.694-0.105-1.026c0.868-1.601,1.937-2.767,2.984-3.619 c-3.346,0.157-5.87,1.201-6.499,3.096c-1.144,3.441,4.128,8.29,11.774,10.831s14.771,1.812,15.915-1.629 C38.482,26.133,37.121,23.776,34.469,21.626z"/></svg>