<svg width="27" height="30" viewBox="0 0 27 30" fill="none" xmlns="http://www.w3.org/2000/svg">
<path d="M2.2084 13.7916L12.32 3.67998C15.2333 0.766695 19.9568 0.766695 22.8701 3.67998C24.2843 5.09419 25.0055 6.93267 25.0479 8.78529C25.0904 10.751 24.3691 12.7309 22.863 14.2371L10.1563 26.9438C9.13097 27.9691 7.77333 28.4641 6.42983 28.4358C5.1641 28.4004 3.90545 27.9055 2.94379 26.9438C0.949747 24.9497 0.949747 21.7253 2.94379 19.7313L15.7 6.97509C16.697 5.97807 18.3092 5.97807 19.3062 6.97509C19.7871 7.45593 20.0346 8.08525 20.0487 8.72165C20.0699 9.3934 19.8154 10.0722 19.2992 10.5884L9.46331 20.4243" fill="white"/>
<path d="M2.2084 13.7916L12.32 3.67998C15.2333 0.766696 19.9568 0.766695 22.8701 3.67998C24.2843 5.09419 25.0055 6.93267 25.0479 8.78529C25.0904 10.751 24.3691 12.7309 22.863 14.2371L10.1563 26.9438C9.13097 27.9691 7.77333 28.4641 6.42983 28.4358C5.1641 28.4004 3.90545 27.9055 2.94379 26.9438C0.949747 24.9497 0.949747 21.7253 2.94379 19.7313L15.7 6.97509C16.697 5.97807 18.3092 5.97807 19.3062 6.97509C19.7871 7.45593 20.0346 8.08525 20.0487 8.72165C20.0699 9.3934 19.8154 10.0722 19.2992 10.5884L9.46331 20.4243" stroke="#8C8CB6" stroke-width="2.5" stroke-miterlimit="10" stroke-linecap="round"/>
</svg>
