<svg width="27" height="26" viewBox="0 0 27 26" fill="none" xmlns="http://www.w3.org/2000/svg">
<g clip-path="url(#clip0_96_13)">
<path d="M25.8854 11.2064L14.1498 5.44673L3.64469 0.279243C1.79903 -0.626519 -0.418077 0.778573 0.0694551 2.54365L2.46068 11.1252C2.59998 11.6129 3.04108 11.9496 3.54022 11.9496H15.8678C16.4482 11.9496 16.9125 12.4141 16.9125 12.9947C16.9125 13.5754 16.4482 14.0398 15.8678 14.0398H3.56344C3.05269 14.0398 2.61159 14.3766 2.47229 14.8759L0.081063 23.4458C-0.406469 25.2109 1.81064 26.616 3.6563 25.7102L14.1615 20.5544L25.8971 14.783C27.3713 14.0515 27.3713 11.938 25.8854 11.2064Z" fill="#8C8CB6"/>
</g>
<defs>
<clipPath id="clip0_96_13">
<rect width="27" height="26" fill="white"/>
</clipPath>
</defs>
</svg>
